#!OML:ASF H:\Terrain\Patient Classification 1\Animal1\Tuesday\Animal1.ASF
:FULLY-SPECIFIED
:DEGREES
1861
root 9.07195 16.4657 -1.65747 -170.222 -171.989 179.243
lowerback -6.09838 0.266889 0.444024
upperback -6.91096 0.327869 0.198787
thorax -3.72317 0.141847 -0.0338796
lowerneck -4.74649 0.155591 -5.7511
upperneck 5.14087 0.0799194 9.00632
head 2.53558 0.190614 4.05991
rclavicle 5.93093e-015 -8.54774e-015
rhumerus -36.5047 12.5856 -55.0053
rradius 29.699
rwrist -26.8977
rhand -7.14566 20.1073
rfingers 7.12502
rthumb 18.7307 -9.01085
lclavicle 5.93093e-015 -8.54774e-015
lhumerus -44.4302 -9.49755 59.1665
lradius 47.4947
lwrist -15.3551
lhand 8.78979 48.0864
lfingers 7.12502
lthumb 33.9776 434.875
rfemur -12.5377 47.4172 8.61386
rtibia 18.119
rfoot -52.9057 -39.3074
rtoes 46.0105
lfemur 0.711605 -13.8901 -5.74267
ltibia 6.36111e-015
lfoot -23.4554 9.29396
ltoes 50.2325
1862
root 9.07257 16.4674 -1.65732 -170.103 -171.947 179.24
lowerback -6.17914 0.274199 0.507162
upperback -6.99203 0.334174 0.171554
thorax -3.763 0.141088 -0.0969503
lowerneck -4.73845 0.132281 -5.72063
upperneck 5.40478 0.0342665 8.93741
head 2.62599 0.168491 4.03305
rclavicle -2.57488e-014 -8.62228e-015
rhumerus -37.4965 12.2061 -56.9584
rradius 29.8951
rwrist -26.8609
rhand -6.14973 19.7561
rfingers 7.12502
rthumb 19.6884 -9.2669
lclavicle -2.57488e-014 -8.62228e-015
lhumerus -45.2286 -8.45306 60.7383
lradius 46.9353
lwrist -14.1757
lhand 8.34987 48.0338
lfingers 7.12502
lthumb 33.5596 434.914
rfemur -12.7357 47.691 8.43404
rtibia 18.0977
rfoot -53.2419 -38.6893
rtoes 46.8828
lfemur 0.605992 -13.8194 -5.71981
ltibia -3.18055e-014
lfoot -23.5859 9.18838
ltoes 50.3043
1863
root 9.07288 16.4664 -1.65677 -170.031 -171.928 179.147
lowerback -6.21023 0.316227 0.66663
upperback -7.08368 0.384248 0.145665
thorax -3.84094 0.157808 -0.211611
lowerneck -4.7092 0.0721427 -5.53788
upperneck 5.76281 -0.0676576 8.70361
head 2.74576 0.117128 3.91655
rclavicle 8.60365e-015 -5.54112e-015
rhumerus -38.5001 11.6371 -58.804
rradius 29.8145
rwrist -26.808
rhand -5.19455 20.0058
rfingers 7.12502
rthumb 20.6065 -8.92041
lclavicle 8.60365e-015 -5.54112e-015
lhumerus -45.8699 -7.58228 62.2079
lradius 46.1369
lwrist -13.0373
lhand 8.39231 48.2403
lfingers 7.12502
lthumb 33.6 435.112
rfemur -12.7682 47.8442 8.46436
rtibia 18.007
rfoot -53.472 -38.2121
rtoes 47.2683
lfemur 0.559047 -13.77 -5.60373
ltibia -7.95139e-015
lfoot -23.5212 9.27976
ltoes 50.1031
1864
root 9.07214 16.4646 -1.65795 -170.036 -171.894 178.975
lowerback -6.09982 0.380355 0.909178
upperback -7.16961 0.462896 0.115546
thorax -3.99079 0.18443 -0.377285
lowerneck -4.73526 0.00587604 -5.2591
upperneck 6.16259 -0.179476 8.39864
head 2.88903 0.0623427 3.75751
rclavicle 1.13804e-014 8.10048e-015
rhumerus -39.5036 11.1755 -60.6926
rradius 29.6619
rwrist -26.7129
rhand -4.88632 20.3176
rfingers 7.12502
rthumb 20.9026 -8.5762
lclavicle 1.13804e-014 8.10048e-015
lhumerus -46.467 -6.92021 63.6652
lradius 45.3382
lwrist -11.8779
lhand 8.2507 48.4645
lfingers 7.12502
lthumb 33.4654 435.365
rfemur -12.7208 48.1411 8.6372
rtibia 17.8961
rfoot -54.0127 -38.3823
rtoes 46.9502
lfemur 0.582728 -13.7143 -5.42564
ltibia -3.18055e-015
lfoot -23.3586 9.57952
ltoes 49.4304
1865
root 9.07084 16.4663 -1.65904 -170.068 -171.808 178.897
lowerback -5.93937 0.450239 1.08088
upperback -7.23729 0.551148 0.0331306
thorax -4.14876 0.217238 -0.557832
lowerneck -4.8674 -0.00676301 -5.01702
upperneck 6.53446 -0.220949 8.24599
head 3.03995 0.0484603 3.66432
rclavicle 2.52084e-014 -8.79622e-015
rhumerus -40.3534 10.562 -62.4374
rradius 29.4406
rwrist -26.3096
rhand -4.4497 20.2858
rfingers 7.12502
rthumb 21.3221 -8.56118
lclavicle 2.52084e-014 -8.79622e-015
lhumerus -47.042 -6.33635 65.042
lradius 44.6376
lwrist -10.6297
lhand 7.84991 48.6461
lfingers 7.12502
lthumb 33.0843 435.629
rfemur -12.6764 48.2822 8.70078
rtibia 17.7541
rfoot -54.1409 -39.1733
rtoes 45.9373
lfemur 0.628392 -13.6301 -5.37716
ltibia 4.77083e-015
lfoot -23.1889 9.92725
ltoes 48.7929
1866
root 9.07022 16.4698 -1.65666 -170.144 -171.689 178.992
lowerback -5.8765 0.48715 1.0592
upperback -7.22563 0.599002 -0.059849
thorax -4.16998 0.239542 -0.641237
lowerneck -4.936 -0.0285216 -4.92732
upperneck 6.67186 -0.259631 8.20079
head 3.10162 0.0325269 3.63334
rclavicle 6.67171e-015 3.47873e-015
rhumerus -40.9618 9.74164 -63.9061
rradius 29.1487
rwrist -25.7781
rhand -3.76992 19.6051
rfingers 7.12502
rthumb 21.9749 -9.16667
lclavicle 6.67171e-015 3.47873e-015
lhumerus -47.5138 -5.55308 66.2006
lradius 44.0353
lwrist -9.93045
lhand 8.29954 49.1806
lfingers 7.12502
lthumb 33.5118 436.071
rfemur -12.5612 48.1926 8.64682
rtibia 17.6552
rfoot -53.8502 -39.5869
rtoes 45.3124
lfemur 0.773494 -13.5485 -5.52755
ltibia 6.36111e-015
lfoot -23.1816 9.98635
ltoes 48.8096
1867
root 9.0706 16.4712 -1.65365 -170.233 -171.598 179.063
lowerback -5.83595 0.501855 1.05042
upperback -7.19913 0.617442 -0.120326
thorax -4.16374 0.247638 -0.698661
lowerneck -4.87163 -0.0731802 -4.90218
upperneck 6.65651 -0.319643 8.15424
head 3.08767 0.000383861 3.60819
rclavicle 1.92573e-015 8.74653e-015
rhumerus -41.3816 8.91525 -65.2506
rradius 28.7071
rwrist -25.1285
rhand -3.522 18.9322
rfingers 7.12502
rthumb 22.2129 -9.81144
lclavicle 1.92573e-015 8.74653e-015
lhumerus -48.131 -5.27013 67.8379
lradius 44.5563
lwrist -9.6648
lhand 9.36327 53.3433
lfingers 7.12502
lthumb 34.5222 440.01
rfemur -12.4618 48.2046 8.63852
rtibia 17.6805
rfoot -53.8483 -39.418
rtoes 45.5404
lfemur 0.946658 -13.4925 -5.6508
ltibia 1.27222e-014
lfoot -23.3252 9.84721
ltoes 48.8991
1868
root 9.07113 16.4687 -1.65424 -170.244 -171.519 179.001
lowerback -5.79541 0.532251 1.21414
upperback -7.21133 0.652385 -0.178999
thorax -4.19669 0.255421 -0.850646
lowerneck -4.86193 -0.080523 -4.81816
upperneck 6.72483 -0.338928 8.13433
head 3.10947 -0.00727413 3.58535
rclavicle 1.64743e-014 5.86415e-015
rhumerus -41.7173 8.1917 -66.6035
rradius 28.1003
rwrist -24.358
rhand -3.37055 19.14
rfingers 7.12502
rthumb 22.3583 -9.5862
lclavicle 1.64743e-014 5.86415e-015
lhumerus -48.2404 -3.63701 67.79
lradius 42.0543
lwrist -10.2198
lhand 8.50614 46.7569
lfingers 7.12502
lthumb 33.7081 433.605
rfemur -12.5363 48.3907 8.65481
rtibia 17.7531
rfoot -54.0608 -39.2746
rtoes 45.7567
lfemur 0.975205 -13.4126 -5.612
ltibia -3.18055e-015
lfoot -23.3678 9.77144
ltoes 48.8374
1869
root 9.0704 16.4679 -1.6559 -170.197 -171.406 179.084
lowerback -5.86438 0.559823 1.23935
upperback -7.21947 0.683973 -0.292075
thorax -4.16452 0.266953 -0.980412
lowerneck -4.90213 -0.0765058 -4.72313
upperneck 6.80387 -0.344834 8.14031
head 3.14378 -0.00599938 3.57113
rclavicle 5.93869e-015 6.95746e-015
rhumerus -42.0423 7.61789 -68.0141
rradius 27.6006
rwrist -23.9632
rhand -3.57573 19.2678
rfingers 7.12502
rthumb 22.1613 -9.48199
lclavicle 5.93869e-015 6.95746e-015
lhumerus -48.4414 -2.96149 68.6543
lradius 41.1565
lwrist -10.2475
lhand 8.21727 47.6763
lfingers 7.12502
lthumb 33.4336 434.584
rfemur -12.7369 48.5203 8.41377
rtibia 17.7904
rfoot -54.1038 -39.084
rtoes 46.1607
lfemur 0.901429 -13.3054 -5.71149
ltibia -7.95139e-015
lfoot -23.288 9.83773
ltoes 48.7437
1870
root 9.06876 16.4696 -1.65626 -170.161 -171.316 179.197
lowerback -5.90908 0.580565 1.19597
upperback -7.24428 0.709169 -0.390555
thorax -4.16436 0.278622 -1.05716
lowerneck -4.99557 -0.0634269 -4.68763
upperneck 6.98058 -0.343412 8.21756
head 3.2232 0.00176177 3.59726
rclavicle 6.23687e-015 7.7526e-015
rhumerus -42.3143 6.97996 -69.2987
rradius 27.1997
rwrist -23.9064
rhand -4.17276 18.785
rfingers 7.12502
rthumb 21.5881 -10.0317
lclavicle 6.23687e-015 7.7526e-015
lhumerus -48.6348 -2.08695 69.2972
lradius 40.2101
lwrist -10.4987
lhand 7.68691 48.0062
lfingers 7.12502
lthumb 32.9293 435.021
rfemur -12.8852 48.4388 8.20366
rtibia 17.8399
rfoot -53.6281 -39.2862
rtoes 46.1187
lfemur 0.857521 -13.2248 -5.83757
ltibia 2.70347e-014
lfoot -23.298 9.88848
ltoes 48.701
